<svg width="120" height="120" viewBox="0 0 120 120" fill="none" xmlns="http://www.w3.org/2000/svg">
<rect width="120" height="120" rx="7.03125" fill="white"/>
<path d="M45.9849 77.0338H35.5213L34.3532 72.6537H24.5223L23.3543 77.0338H12.8906L23.7436 42.9662H35.1319L45.9849 77.0338ZM29.4378 54.4032L26.615 64.8668H32.2605L29.4378 54.4032Z" fill="#000D30"/>
<path d="M71.2999 42.9662H81.0335V77.0338H71.2999V60.438L63.7077 73.189H62.8316L55.2394 60.438V77.0338H45.5058V42.9662H55.2394L63.2696 56.8366L71.2999 42.9662Z" fill="#000D30"/>
<path d="M102.56 59.562C105.61 61.2491 107.135 63.8934 107.135 67.4949C107.135 70.5772 105.983 73.0755 103.679 74.9898C101.408 76.8716 98.2447 77.8125 94.1891 77.8125C87.3755 77.8125 82.9143 75.2006 80.8053 69.9769L89.0302 65.1588C90.0361 67.43 91.7557 68.5656 94.1891 68.5656C96.3305 68.5656 97.4011 67.7869 97.4011 66.2295C97.4011 64.9317 96.59 64.2017 94.9677 64.0394L89.8089 63.9908V55.7172L93.8484 55.6685C95.5355 55.5712 96.3791 54.8412 96.3791 53.4785C96.3791 51.986 95.3895 51.2398 93.4104 51.2398C91.3014 51.2398 89.8738 52.2456 89.1276 54.2572L81.0487 49.5364C82.022 47.2328 83.6443 45.432 85.9155 44.1342C88.1867 42.8364 90.7661 42.1875 93.6537 42.1875C97.3525 42.1875 100.354 43.1446 102.657 45.0589C104.961 46.9732 106.113 49.4715 106.113 52.5538C106.113 55.6361 104.928 57.9722 102.56 59.562Z" fill="#000D30"/>
</svg>
