<svg width="365" height="310" viewBox="0 0 365 310" fill="none" xmlns="http://www.w3.org/2000/svg">
<path d="M355.094 100.926C355.421 113.164 343.183 124.99 329.554 133.006C324.783 135.821 319.857 138.156 315.222 139.889C300.307 145.467 287.759 145.038 278.49 144.747C278.353 144.729 278.233 144.729 278.096 144.729C277.804 144.712 277.495 144.712 277.203 144.695C261.857 144.06 246.324 140.747 232.662 133.59C232.302 133.401 231.941 133.212 231.581 133.006C219.806 126.707 208.048 117.712 206.95 103.38C206.401 96.3254 208.632 89.1506 212.871 83.5044C217.455 77.4109 224.148 73.9953 230.19 69.5841C234.447 66.4777 236.335 61.9801 238.326 57.3114C239.716 54.0678 241.227 50.8578 242.96 47.7678C243.921 46.0855 244.917 44.455 246.016 42.8591C253.688 31.685 266.39 23.4981 279.846 21.5757C293.869 19.5851 307.258 26.1243 316.44 36.6464C321.985 42.98 325.795 50.8068 327.443 59.0628C328.798 65.8084 327.408 74.2527 332.661 79.5396C338.754 85.6678 347.508 83.8482 352.468 91.4858C354.94 95.2787 355.043 99.2435 355.094 100.926Z" fill="#DFEAF7"/>
<path d="M305.718 76.4475C318.176 65.7754 321.879 46.2879 313.358 33.7479C308.446 26.5186 300.875 23.6632 297.157 22.5656C295.611 20.315 291.693 15.3099 285.057 13.4867C273.486 10.3076 263.443 19.4957 262.023 20.7942C248.727 32.9595 243.722 62.6708 261.876 77.1859C273.67 86.6159 292.894 87.4352 305.718 76.4475Z" fill="#002D53"/>
<path d="M289.754 58.7359H275.474V76.3464H289.754V58.7359Z" fill="#FFB3AE"/>
<path d="M289.754 58.7359V67.2147C282.219 67.764 277.911 66.7855 275.474 65.2923V58.7359H289.754Z" fill="#FF7A72"/>
<path d="M303.865 48.1596C302.504 51.7852 299.191 53.8949 296.466 52.8709C293.742 51.8479 292.637 48.0796 293.999 44.454C295.361 40.8284 298.673 38.7187 301.398 39.7426C304.122 40.7656 305.226 44.534 303.865 48.1596Z" fill="#FFB3AE"/>
<path d="M263.661 48.1596C265.022 51.7852 268.335 53.8949 271.06 52.8709C273.784 51.8479 274.889 48.0796 273.527 44.454C272.165 40.8284 268.853 38.7187 266.128 39.7426C263.404 40.7656 262.3 44.534 263.661 48.1596Z" fill="#FFB3AE"/>
<path d="M297.053 44.801C299.35 51.1192 292.1 63.7337 282.826 63.7337C274.968 63.7337 268.599 55.2577 268.599 44.801C268.599 33.4105 280.029 24.4798 282.826 25.8683C283.951 26.4267 283.027 28.3199 284.039 31.57C286.454 39.3222 295.095 39.4168 297.053 44.801Z" fill="#FFB3AE"/>
<path d="M322.697 125.848H241.21V109.976C241.21 87.4738 259.452 69.2322 281.954 69.2322C304.455 69.2322 322.697 87.4738 322.697 109.976V125.848Z" fill="#FFB042"/>
<path d="M334.842 100.52H312.403V126.066H334.842V100.52Z" fill="#3D71F2"/>
<path d="M341.988 113.381C341.988 115.605 340.173 117.407 337.949 117.407C336.694 117.407 335.576 116.836 334.843 115.941V121.358C335.799 121.744 336.856 121.942 337.949 121.942C342.683 121.942 346.522 118.115 346.522 113.381C346.522 108.647 342.683 104.808 337.949 104.808C336.856 104.808 335.799 105.007 334.843 105.392V110.809C335.576 109.914 336.694 109.343 337.949 109.343C340.174 109.343 341.988 111.144 341.988 113.381Z" fill="#3D71F2"/>
<path d="M351.202 126.066H214.431V133.004H351.202V126.066Z" fill="#D18C7E"/>
<path d="M237.91 110.328C237.44 98.2091 237.609 82.9274 241.627 82.0635C241.765 82.0335 242.245 81.938 242.728 82.1862C245.98 83.8622 242.225 97.507 237.91 110.328Z" fill="#40C1B0"/>
<path d="M237.91 110.328C231.983 99.9391 229.126 98.0513 227.638 98.5132C227.077 98.6878 226.674 99.2098 226.525 99.6954C225.497 103.05 235.28 108.822 237.91 110.328Z" fill="#40C1B0"/>
<path d="M237.907 110.328C237.907 110.328 243.436 94.4151 247.258 95.3609C251.08 96.3066 237.907 110.328 237.907 110.328Z" fill="#40C1B0"/>
<path d="M229.23 125.848H244.359L245.699 107.325H227.89L229.23 125.848Z" fill="#FF828A"/>
<path d="M313.071 122.634C313.071 124.522 311.526 126.067 309.638 126.067H254.281C252.394 126.067 250.849 124.522 250.849 122.634V88.0922C250.849 86.2043 252.394 84.6594 254.281 84.6594H309.638C311.526 84.6594 313.071 86.2043 313.071 88.0922V122.634Z" fill="white"/>
<path d="M281.957 111.448C284.61 111.448 286.76 109.298 286.76 106.645C286.76 103.992 284.61 101.842 281.957 101.842C279.304 101.842 277.154 103.992 277.154 106.645C277.154 109.298 279.304 111.448 281.957 111.448Z" fill="#DFEAF7"/>
<path d="M329.557 133.005C324.786 135.82 319.86 138.155 315.225 139.888C300.31 145.466 287.762 145.038 278.493 144.746C278.356 144.728 278.236 144.728 278.099 144.728C277.807 144.711 277.498 144.711 277.206 144.694C261.86 144.059 246.327 140.746 232.665 133.589C232.305 133.4 231.944 133.211 231.583 133.005H329.557Z" fill="#BC7F72"/>
<path d="M353.097 278.27C350.106 283.429 346.504 288.45 342.245 293.242L342.23 293.257C342.184 293.303 342.138 293.365 342.093 293.41C333.637 302.903 321.351 308.076 308.638 307.909L259.693 307.268C259.693 307.268 244.034 302.705 228.406 293.257C228.391 293.257 228.391 293.242 228.375 293.242C220.012 288.175 211.649 281.673 205.742 273.767C200.705 267.037 197.455 259.237 197.485 250.386C197.485 250.386 194.952 218.992 248.155 217.222C272.467 214.383 268.33 185.507 320.45 186.561C322.236 186.592 323.976 186.714 325.639 186.927C328.478 187.278 331.179 187.889 333.727 188.698C347.28 193.094 356.758 203.792 361.336 217.482C362.207 220.076 362.909 222.778 363.427 225.57C366.39 241.718 363.291 260.75 353.097 278.27Z" fill="#DFEAF7"/>
<path d="M363.432 225.567H325.654V186.927C328.494 187.286 331.188 187.896 333.735 188.705C347.296 193.097 356.77 203.792 361.347 217.486C362.224 220.073 362.914 222.78 363.432 225.567Z" fill="#F1F3F6"/>
<path d="M361.342 217.486H333.729V188.705C347.289 193.097 356.764 203.792 361.342 217.486Z" fill="#DFEAF7"/>
<path d="M345.159 273.772H322.655C322.687 268.792 322.718 263.811 322.75 258.831C322.288 258.571 321.898 258.271 321.568 257.944C317.138 253.561 321.812 242.803 322.357 241.579C323.34 243.024 324.324 244.467 325.307 245.911H331.416C332.225 244.463 333.035 243.015 333.844 241.569C334.494 242.947 335.12 244.499 335.657 246.219C337.207 251.182 337.429 255.664 337.271 259.013C339.235 259.086 340.552 259.699 345.159 273.772Z" fill="#002D53"/>
<path d="M324.41 252.129C324.41 252.783 324.319 253.314 324.206 253.314C324.093 253.314 324.002 252.783 324.002 252.129C324.002 251.475 324.094 250.944 324.206 250.944C324.319 250.944 324.41 251.475 324.41 252.129Z" fill="white"/>
<path d="M330.413 252.129C330.413 252.783 330.322 253.314 330.209 253.314C330.096 253.314 330.005 252.783 330.005 252.129C330.005 251.475 330.096 250.944 330.209 250.944C330.322 250.944 330.413 251.475 330.413 252.129Z" fill="white"/>
<path d="M261.633 273.774H247.818L253.249 251.917H267.064L261.633 273.774Z" fill="#002D53"/>
<path d="M294.681 261.438C294.836 262.889 293.767 264.077 292.308 264.077H221.025C219.566 264.077 218.246 262.889 218.091 261.438L213.366 217.017C213.211 215.566 214.28 214.378 215.739 214.378H287.022C288.481 214.378 289.802 215.566 289.956 217.017L294.681 261.438Z" fill="white"/>
<path d="M294.681 261.438C294.836 262.889 293.767 264.077 292.308 264.077H221.025C219.566 264.077 218.246 262.889 218.091 261.438L213.366 217.017C213.211 215.566 214.28 214.378 215.739 214.378H287.022C288.481 214.378 289.802 215.566 289.956 217.017L294.681 261.438Z" fill="#002D53"/>
<path d="M224 260.762C222.54 260.762 221.22 259.575 221.065 258.123L217.045 220.331C216.891 218.88 217.959 217.693 219.419 217.693H284.035C285.495 217.693 286.815 218.88 286.97 220.331L290.989 258.123C291.144 259.575 290.075 260.762 288.616 260.762H224Z" fill="#004072"/>
<path d="M240.092 229.514H224.693L224.317 227.111H239.716L240.092 229.514Z" fill="#FF828A"/>
<path d="M259.538 229.514H244.139L243.765 227.111H259.163L259.538 229.514Z" fill="white"/>
<path d="M241.24 236.475H225.841L225.466 234.073H240.865L241.24 236.475Z" fill="white"/>
<path d="M252.792 242.403H237.393L237.019 240.001H252.417L252.792 242.403Z" fill="white"/>
<path d="M261.945 249.172H246.547L246.171 246.769H261.569L261.945 249.172Z" fill="white"/>
<path d="M271.312 249.172H263.613L263.237 246.769H270.937L271.312 249.172Z" fill="#FF828A"/>
<path d="M269.833 242.403H254.435L254.06 240.001H269.459L269.833 242.403Z" fill="#FF828A"/>
<path d="M342.247 293.242L342.232 293.258C342.186 293.303 342.14 293.365 342.094 293.411C333.639 302.903 321.353 308.077 308.64 307.909L259.695 307.268C259.695 307.268 244.036 302.705 228.408 293.258C228.392 293.258 228.392 293.242 228.377 293.242H342.247Z" fill="#BC7F72"/>
<path d="M353.105 278.269C350.112 283.429 346.499 288.467 342.234 293.25H228.421C220.036 288.179 211.662 281.694 205.751 273.773H349.891L353.105 278.269Z" fill="#D18C7E"/>
<path d="M305.173 242.395C301.851 252.397 293.424 258.602 286.35 256.253C279.276 253.904 276.234 243.891 279.556 233.888C282.878 223.887 291.305 217.682 298.379 220.031C305.452 222.38 308.494 232.393 305.173 242.395Z" fill="#FFB3AE"/>
<path d="M305.851 244.781H291.544V261.845H305.851V244.781Z" fill="#FFB3AE"/>
<path d="M278.48 238.38C278.48 238.38 266.669 231.656 276.054 219.973C278.48 216.43 278.48 223.649 278.48 223.649C278.48 223.649 286.538 200.285 300.197 215.183C300.197 215.183 313.108 217.369 315.977 226.08C316.905 228.898 316.398 231.3 315.892 233.888C315.714 234.797 312.426 250.477 301.385 252.41C299.84 252.681 296.238 253.016 291.54 250.54C287.186 246.486 282.833 242.433 278.48 238.38Z" fill="#002D53"/>
<path d="M290.151 244.253C290.432 247.374 289.607 249.998 288.31 250.116C287.012 250.233 285.734 247.798 285.453 244.677C285.172 241.556 285.997 238.931 287.293 238.814C288.591 238.697 289.87 241.132 290.151 244.253Z" fill="#FFB3AE"/>
<path d="M336.101 305.166C336.101 305.166 333.295 306.767 325.716 308.127C317.044 309.684 302.13 310.922 278.035 309.077C272.433 308.657 266.335 308.06 259.707 307.265C259.707 307.265 261.607 298.527 266.147 288.164C272.346 274 283.492 256.799 301.456 254.755C319.198 252.733 327.971 269.415 332.235 284.131C335.449 295.212 336.101 305.166 336.101 305.166Z" fill="#3D71F2"/>
<path d="M336.1 305.166C336.1 305.166 333.294 306.767 325.715 308.127L323.406 287.346L332.233 284.132C335.448 295.212 336.1 305.166 336.1 305.166Z" fill="#FFB3AE"/>
<path d="M280.873 293.25L279.922 298.586C278.839 304.585 273.316 308.739 267.251 308.109C264.82 307.856 262.301 307.579 259.705 307.27C251.176 306.32 234.759 282.291 234.759 282.291L230.274 283.164C228.816 288.335 227.723 289.65 226.927 289.605C225.248 289.517 224.397 283.231 224.96 279.497C225.071 278.79 225.269 277.894 225.977 277.298C226.584 276.79 227.402 276.635 228.131 276.624C229.07 276.712 229.534 276.768 229.733 276.779C229.491 276.734 228.86 276.613 228.131 276.624C228.021 276.613 227.899 276.602 227.766 276.591C228.264 272.216 231.015 268.582 234.804 267.311C238.317 266.129 241.421 267.41 242.294 267.798C242.294 267.798 243.377 267.113 245.984 267.356C248.592 267.61 249.973 273.951 249.973 273.951L266.147 288.17C269.162 290.311 274.399 293.183 280.873 293.25Z" fill="#FFB3AE"/>
<path d="M229.733 277.541C229.686 277.541 229.64 277.536 229.594 277.529C229.333 277.48 228.764 277.384 228.143 277.386C227.74 277.437 227.376 277.055 227.369 276.633C227.363 276.213 227.7 275.866 228.122 275.859C228.897 275.861 229.566 275.969 229.848 276.023C230.263 276.1 230.548 276.499 230.473 276.912C230.403 277.282 230.092 277.541 229.733 277.541Z" fill="#FF7A72"/>
<path d="M262.137 296.39C262.015 296.39 261.891 296.36 261.776 296.299C261.405 296.099 261.265 295.637 261.465 295.266L265.472 287.806C265.672 287.435 266.135 287.297 266.505 287.495C266.876 287.695 267.016 288.157 266.816 288.528L262.809 295.988C262.672 296.243 262.408 296.39 262.137 296.39Z" fill="#FF7A72"/>
<path d="M323.409 287.918C323.143 287.918 322.905 287.734 322.848 287.464L319.968 273.772C319.904 273.464 320.1 273.159 320.41 273.094C320.73 273.038 321.023 273.228 321.089 273.537L323.97 287.228C324.033 287.536 323.837 287.841 323.527 287.906C323.486 287.914 323.447 287.918 323.409 287.918Z" fill="#002D53"/>
<path d="M280.87 293.822C280.777 293.822 280.686 293.799 280.599 293.753C280.321 293.603 280.216 293.256 280.366 292.979L285.616 283.24C285.767 282.96 286.115 282.862 286.391 283.008C286.669 283.158 286.774 283.505 286.624 283.782L281.374 293.521C281.271 293.712 281.073 293.822 280.87 293.822Z" fill="#002D53"/>
<path d="M174.034 273.772C167.692 285.041 157.826 292.929 146.127 298.342C146.072 298.364 146.017 298.398 145.962 298.419C130.329 305.601 111.449 308.384 93.2422 308.915C75.6763 309.434 58.7514 307.844 45.9795 306.065C32.7221 304.22 23.9396 302.177 23.6076 302.077C22.6355 301.779 21.6962 301.414 21.6962 301.414C21.0005 301.16 20.304 300.862 19.6301 300.552C19.6083 300.552 19.5965 300.541 19.5747 300.53L19.3755 300.431C14.0176 297.946 9.55451 294.123 6.3063 289.461C2.38426 283.804 0.285471 276.932 0.650121 269.762C1.0366 262.272 2.75982 253.997 7.06924 245.965C16.0846 229.14 36.6105 213.032 57.4692 211.574C65.4015 211.021 76.5156 211.982 87.7625 204.989C90.3459 203.383 91.2017 202.814 93.6051 201.291C97.0442 199.111 114.673 187.937 135.706 190.29C140.866 190.868 158.075 193.585 170.378 207.994C187.178 227.672 183.721 256.558 174.034 273.772Z" fill="#DFEAF7"/>
<path d="M151.063 288.411C149.239 292.466 147.494 295.857 146.124 298.343C146.068 298.365 146.013 298.399 145.958 298.421C130.326 305.602 111.446 308.385 93.2387 308.916C87.2615 308.961 81.7381 308.695 76.7666 308.253C68.6798 303.249 65.0451 295.615 66.8683 290.312C67.3548 288.898 68.2387 287.638 69.5418 286.655C81.628 277.464 101.083 277.221 105.138 266.714C107.833 259.71 114.606 240.177 118.814 227.947C120.118 224.169 129.686 214.149 141.098 214.679C150.588 215.11 156.995 223.031 157.625 223.826C171.843 241.933 156.365 276.546 151.063 288.411Z" fill="#3D71F2"/>
<path d="M133.313 293.961C133.29 293.961 133.264 293.959 133.239 293.956L116.067 291.687C115.753 291.645 115.534 291.357 115.574 291.045C115.615 290.734 115.884 290.52 116.216 290.551L133.387 292.821C133.702 292.862 133.921 293.15 133.88 293.463C133.842 293.751 133.596 293.961 133.313 293.961Z" fill="#002D53"/>
<path d="M41.346 257.812C40.7585 242.672 40.9704 223.581 45.9882 222.502C46.161 222.464 46.7603 222.344 47.3641 222.655C51.4261 224.748 46.7357 241.795 41.346 257.812Z" fill="#40C1B0"/>
<path d="M41.345 257.811C33.9419 244.832 30.3718 242.474 28.514 243.051C27.812 243.269 27.3082 243.92 27.1227 244.528C25.8369 248.719 38.0595 255.929 41.345 257.811Z" fill="#40C1B0"/>
<path d="M41.3521 257.811C41.3521 257.811 48.2586 237.932 53.0336 239.113C57.8077 240.294 41.3521 257.811 41.3521 257.811Z" fill="#40C1B0"/>
<path d="M50.4246 279.172H31.5228L29.8496 256.031H52.0978L50.4246 279.172Z" fill="#FF828A"/>
<path d="M93.2423 212.426C93.2423 212.426 85.17 210.851 86.9423 202.679C88.7146 194.509 94.0307 194.607 94.0307 194.607C94.0307 194.607 102.792 181.12 119.134 189.291C135.476 197.461 123.466 209.078 132.621 216.855C141.776 224.632 155.308 260.428 125.9 257.051L93.2423 212.426Z" fill="#002D53"/>
<path d="M115.547 294.14C114.73 295.51 111.813 300.304 106.83 303.321C92.0922 312.258 69.6658 299.399 62.33 295.189C55.6126 291.334 50.6085 287.235 47.3712 284.285L23.608 302.072C22.2494 301.652 20.9236 301.145 19.6305 300.547C19.6086 300.547 19.5977 300.536 19.575 300.525L19.3759 300.426C14.0179 297.94 9.55485 294.118 6.30664 289.456C13.3105 281.612 30.6782 263.239 40.3783 262.731C52.7182 262.079 84.5801 278.971 84.5801 278.971L119.579 277.789C119.701 280.64 119.601 287.313 115.547 294.14Z" fill="#004070"/>
<path d="M110.766 231.721C110.766 231.721 96.7208 240.253 97.3774 243.535C98.0339 246.816 98.0339 246.816 98.0339 246.816L84.5801 278.975C89.0414 280.492 94.5157 281.974 100.857 282.912C107.914 283.957 114.169 284.05 119.245 283.787C121.247 277.406 133.699 236.915 122.908 230.934C122.024 230.444 120.935 230.158 119.577 230.195L110.766 231.721Z" fill="#FFB042"/>
<path d="M70.4269 259.276L59.8912 254.971C59.201 254.689 58.729 253.829 58.729 252.856V225.839C58.729 224.356 59.7893 223.294 60.8405 223.724L71.3763 228.029C72.0665 228.311 72.5384 229.171 72.5384 230.144V257.161C72.5384 258.644 71.4781 259.706 70.4269 259.276Z" fill="white"/>
<path d="M121.106 251.264C115.493 258.467 109.793 263.384 105.142 266.708C103.784 267.681 102.513 268.509 101.364 269.227C93.7625 273.967 90.7353 273.856 89.554 273.735C78.7936 272.608 73.7886 254.71 73.5239 253.738L66.2655 253.252C66.2655 253.252 61.6805 247.828 62.609 246.027C63.5483 244.227 65.8463 243.497 65.8463 243.497C65.8463 243.497 60.7866 241.365 63.3165 239.697C65.8463 238.017 72.7728 241.078 72.7728 241.078C72.7728 241.078 72.0435 236.836 75.9219 238.813C79.7885 240.78 81.689 252.137 81.689 252.137C85.18 259.351 91.2227 258.743 97.2444 255.374C106.403 250.27 115.495 238.814 115.495 238.814L121.106 251.264Z" fill="#FFB3AE"/>
<path d="M123.241 252.771C121.218 254.946 118.762 257.308 115.825 259.662C112.015 262.717 108.337 265.004 105.149 266.71C102.928 263.55 99.6138 258.822 97.2495 255.375C102.697 251.806 106.152 248.109 108.343 245.289C111.003 241.863 112.501 238.829 116.089 237.796C118.224 237.181 121.141 237.263 123.11 238.857C126.174 241.34 126.695 247.296 123.241 252.771Z" fill="#FFB042"/>
<path d="M90.3864 232.177C90.3864 232.177 89.4935 227.521 84.2792 231.294C79.065 235.068 76.8662 236.684 77.8183 238.288C78.7695 239.892 84.5784 236.414 84.5784 236.414" fill="#FFB3AE"/>
<path d="M84.5747 243.549V243.565C83.4908 243.931 82.7433 243.641 82.2395 243.046C80.9419 241.535 81.0646 238.147 81.0646 238.147C81.7112 237.857 82.3568 237.566 83.0034 237.277C83.5263 239.368 84.0509 241.459 84.5747 243.549Z" fill="#FFB3AE"/>
<path d="M85.8159 243.9C85.3276 244.038 84.9156 243.9 84.5801 243.565V243.549C84.3509 243.336 84.1527 243.031 83.9999 242.679C83.9845 242.664 83.9845 242.648 83.9845 242.648C83.0997 240.695 83.0078 237.276 83.0078 237.276C83.8835 236.12 84.7583 234.963 85.634 233.807C86.3761 235.253 87.119 236.699 87.861 238.145C87.861 238.147 88.4257 243.122 85.8159 243.9Z" fill="#FFB3AE"/>
<path d="M92.4094 260.261L86.305 259.086L88.7929 257.759C82.9476 257.5 82.2456 243.046 82.2456 243.046C82.7494 243.641 83.4969 243.931 84.5808 243.565C84.9164 243.9 85.3283 244.037 85.8166 243.9C88.4265 243.122 87.8618 238.147 87.8618 238.147L84.3207 237.506C84.3662 237.139 84.5035 236.743 84.7172 236.315L90.3488 232.21C90.8826 232.149 91.3864 232.179 91.8293 232.286H91.8902C93.8744 232.744 95.2021 234.637 95.1866 236.666V236.986C95.1257 245.365 94.8811 249.181 96.698 250.02C97.1863 250.234 97.4154 250.066 97.6437 250.326C99.2005 252.035 92.4094 260.261 92.4094 260.261Z" fill="#FFB3AE"/>
<path d="M91.5945 244.221C91.5381 244.221 91.4781 244.215 91.4199 244.2C90.7743 244.048 89.1802 243.525 88.3154 241.948C87.3615 240.189 87.7343 237.937 89.2375 236.34C89.5267 236.033 90.0095 236.019 90.3169 236.308C90.6242 236.597 90.6388 237.082 90.3496 237.387C89.3139 238.486 89.0274 240.061 89.6549 241.217C90.2223 242.253 91.3226 242.61 91.7682 242.715C92.1792 242.812 92.433 243.222 92.3366 243.632C92.2547 243.984 91.9419 244.221 91.5945 244.221Z" fill="#FF7A72"/>
<path d="M85.4839 239.706C85.1338 239.706 84.8164 239.643 84.5281 239.519C84.1671 239.362 83.3478 238.84 83.5579 237.396C83.6188 236.977 84.0125 236.697 84.4236 236.751C84.841 236.812 85.1283 237.199 85.0692 237.616C85.0383 237.829 85.0456 238.078 85.1365 238.118C85.3366 238.204 85.9686 238.316 87.4854 237.479C88.4902 236.929 89.3068 236.275 89.3141 236.269C89.636 236.011 90.1216 236.041 90.3889 236.352C90.6554 236.667 90.6426 237.122 90.3371 237.399L89.8242 236.834L90.3307 237.406C90.2334 237.489 89.3414 238.204 88.2219 238.817C87.1462 239.412 86.2414 239.706 85.4839 239.706Z" fill="#FF7A72"/>
<path d="M84.7074 237.079C84.5956 237.079 84.4837 237.055 84.3764 237.004C83.9963 236.821 83.8372 236.365 84.0191 235.985C84.7765 234.411 86.6016 232.325 89.2606 231.626C89.6097 231.536 89.9326 231.486 90.2572 231.451C90.6682 231.412 91.0529 231.708 91.0975 232.128C91.142 232.547 90.8401 232.923 90.4209 232.968C90.1645 232.996 89.9098 233.035 89.6416 233.101C87.631 233.631 86.0587 235.263 85.3958 236.646C85.2639 236.919 84.9911 237.079 84.7074 237.079Z" fill="#FF7A72"/>
<path d="M97.2495 256.136C96.9885 256.136 96.7348 256.004 96.5921 255.764C96.3774 255.402 96.4947 254.933 96.8576 254.717C96.9431 254.666 105.423 249.557 110.012 241.76C110.225 241.394 110.695 241.277 111.057 241.489C111.419 241.702 111.542 242.171 111.327 242.534C106.537 250.677 97.9997 255.814 97.6396 256.028C97.516 256.103 97.3823 256.136 97.2495 256.136Z" fill="#FF7A72"/>
<path d="M119.587 230.195C118.183 231.599 108.614 241.138 104.767 241.077C104.553 241.077 104.126 241.046 103.928 240.771C102.767 239.184 110.765 231.72 110.765 231.72C110.628 231.064 110.475 230.424 110.338 229.767L109.757 227.142C109.254 227.646 108.491 228.348 107.468 229.08C106.171 230.026 103.179 232.04 100.722 232.117C96.1281 232.239 93.0454 222.991 93.0454 222.991C92.3124 222.747 91.5804 222.518 90.832 222.273C91.3813 220.655 91.916 219.038 92.4498 217.42C90.6183 212.749 92.4498 203.364 92.4498 203.364L93.2436 200.372C94.1593 201.853 97.2266 206.416 103.347 208.751C108.886 210.857 113.725 209.896 115.495 209.468C116.091 212.521 116.701 215.558 117.296 218.61V218.626C117.723 220.793 118.151 222.975 118.594 225.142C118.915 226.823 119.25 228.517 119.587 230.195Z" fill="#FFB3AE"/>
<path d="M119.268 215.298C118.286 218.284 116.09 220.244 114.363 219.675C112.636 219.107 112.032 216.226 113.014 213.241C113.996 210.255 116.192 208.296 117.919 208.864C119.646 209.432 120.25 212.313 119.268 215.298Z" fill="#FFB3AE"/>
<path d="M118.596 225.144L110.339 229.768L109.759 227.142L117.298 218.626C117.726 220.794 118.153 222.977 118.596 225.144Z" fill="#FF7A72"/>
<path d="M147.328 295.68L145.958 298.42C130.325 305.601 111.445 308.385 93.2383 308.916C75.6723 309.435 58.7474 307.845 45.9756 306.066C46.9368 302.365 50.8588 293.549 66.867 290.312C68.9658 289.892 71.2638 289.561 73.7936 289.351C101.071 287.107 147.328 295.68 147.328 295.68Z" fill="#3D71F2"/>
<path d="M171.254 121.534C168.8 126.597 164.646 131.128 159.223 135.008C132.412 154.249 74.6719 157.991 40.0347 135.008C34.3194 131.231 29.2379 126.717 25.0331 121.431C13.808 107.339 7.16522 85.7807 8.74385 65.424C9.39586 57.0652 10.3743 46.4921 18.0465 37.3086C33.5283 18.806 62.0901 22.9935 63.5314 23.2336C83.5281 26.4773 83.8709 38.4071 112.793 56.7387C144.959 77.1464 163.273 74.2629 171.169 92.4918C174.79 100.833 175.683 112.367 171.254 121.534Z" fill="#DFEAF7"/>
<path d="M68.1978 128.069L74.907 97.9581C76.5893 90.4069 81.6471 84.0469 88.6264 80.7077L108.425 71.235L128.738 79.6838C136.905 83.0811 142.872 90.2868 144.687 98.9439L150.792 128.069H68.1978Z" fill="#3D71F2"/>
<path d="M95.8867 118.441C95.8867 118.441 101.182 111.499 103.729 111.942C106.275 112.385 110.981 120.688 110.981 120.688H131.98L132.57 115.374C132.57 115.374 146.004 117.81 150.801 128.069H98.2474L95.8867 118.441Z" fill="#FFB0B3"/>
<path d="M132.57 116.018C132.244 116.018 131.964 115.771 131.93 115.439L130.107 97.514C130.071 97.1603 130.328 96.8439 130.682 96.8084C131.039 96.7802 131.352 97.0294 131.387 97.3831L133.21 115.308C133.246 115.662 132.989 115.978 132.636 116.014C132.613 116.016 132.591 116.018 132.57 116.018Z" fill="#002D53"/>
<path d="M99.0137 68.2083V82.1587C99.0137 82.1587 98.017 90.7948 103.553 90.0192C109.089 89.2444 114.962 73.9536 114.962 73.9536L114.048 60.3843L99.0137 68.2083Z" fill="#FFB0B3"/>
<path d="M114.767 70.8825L99.0273 80.9745V68.2044L114.046 60.3776L114.767 70.8825Z" fill="#FF7A72"/>
<path d="M114.896 58.4144C119.024 47.7505 116.326 36.7664 108.871 33.8806C101.416 30.9948 92.0264 37.3002 87.8985 47.9641C83.7706 58.628 86.4678 69.6122 93.9229 72.4979C101.378 75.3837 110.768 69.0783 114.896 58.4144Z" fill="#FFB3AE"/>
<path d="M116.727 50.6501C116.727 50.6501 109.021 46.4335 104.814 36.617C104.814 36.617 85.1065 52.0433 80.456 42.596C75.8056 33.1487 87.3208 25.6929 88.6493 32.1148C88.6493 32.1148 99.2651 14.9171 116.727 26.3577C134.19 37.7982 116.727 50.6501 116.727 50.6501Z" fill="#002D53"/>
<path d="M119.586 55.2834C118.464 58.4107 116.072 60.4149 114.245 59.7583C112.419 59.1018 111.846 56.0355 112.968 52.9082C114.09 49.7809 116.482 47.7767 118.309 48.4324C120.137 49.088 120.708 52.1562 119.586 55.2834Z" fill="#FFB3AE"/>
<path d="M51.1879 102.528H32.3643V128.074H51.1879V102.528Z" fill="#6190E5"/>
<path d="M25.2171 115.388C25.2171 117.612 27.0312 119.414 29.2555 119.414C30.5104 119.414 31.6289 118.842 32.3619 117.948V123.365C31.4052 123.751 30.3495 123.949 29.2555 123.949C24.5214 123.949 20.6821 120.122 20.6821 115.388C20.6821 110.654 24.5214 106.815 29.2555 106.815C30.3485 106.815 31.4052 107.014 32.3619 107.399V112.816C31.6289 111.921 30.5104 111.35 29.2555 111.35C27.0312 111.351 25.2171 113.152 25.2171 115.388Z" fill="#6190E5"/>
<path d="M37.6395 83.434C39.9548 79.8984 43.3239 77.0403 45.0226 73.1701C47.3578 67.8504 46.1293 61.5859 47.9116 56.0561C50.4978 48.0329 58.6747 43.3061 63.4679 36.3713C68.6858 28.8219 69.4987 18.4444 65.5194 10.1747C63.7034 6.4 60.849 2.98447 57.036 1.2476C52.5157 -0.812082 47.0068 -0.232824 42.7528 2.33246C38.4989 4.89774 35.4917 9.28537 34.1531 14.0686C30.853 25.8629 37.2349 38.5783 34.7014 50.5609C33.1955 57.6857 28.6551 63.8829 27.1229 71.0022C25.7907 77.1949 27.0447 83.8196 30.2438 89.2548C31.1804 90.847 33.7903 95.8767 35.1834 92.4166C35.7117 91.1053 35.3862 89.493 35.6717 88.1117C36.0136 86.4512 36.712 84.8489 37.6395 83.434Z" fill="#F1F3F6"/>
<path d="M169.129 128.068H21.9199V135.007H169.129V128.068Z" fill="#D18C7E"/>
<path d="M159.224 135.008C132.414 154.249 74.6734 157.991 40.0361 135.008H159.224Z" fill="#BC7F72"/>
<path d="M101.104 124.734C101.555 126.568 100.378 128.068 98.4891 128.068H54.8684C52.9805 128.068 51.0673 126.568 50.618 124.734L42.6585 92.2831C42.2084 90.449 43.3851 88.9495 45.2738 88.9495H88.8945C90.7823 88.9495 92.6956 90.4499 93.1448 92.2831L101.104 124.734Z" fill="white"/>
<path d="M76.1702 108.968C76.6567 111.621 74.8998 113.772 72.2463 113.772C69.5928 113.772 67.0485 111.622 66.5629 108.968C66.0764 106.315 67.8332 104.165 70.4867 104.165C73.1384 104.164 75.6837 106.315 76.1702 108.968Z" fill="#DFEAF7"/>
</svg>
